<?xml version="1.0" standalone="no"?>
<!DOCTYPE svg PUBLIC "-//W3C//DTD SVG 20010904//EN"
 "http://www.w3.org/TR/2001/REC-SVG-20010904/DTD/svg10.dtd">
<svg version="1.0" xmlns="http://www.w3.org/2000/svg"
 width="60.000000pt" height="60.000000pt" viewBox="0 0 60.000000 60.000000"
 preserveAspectRatio="xMidYMid meet">

<g transform="translate(0.000000,60.000000) scale(0.100000,-0.100000)"
fill="#000000" stroke="none">
<path d="M80 578 c0 -7 -12 -22 -27 -32 -14 -11 -23 -14 -19 -8 4 7 3 12 -3
12 -25 0 -31 -47 -31 -237 0 -233 0 -234 81 -239 50 -3 51 -2 12 5 -73 13 -73
13 -73 197 l0 164 139 0 c83 0 142 4 146 10 3 6 21 17 38 26 31 14 23 5 -20
-23 -15 -10 8 -12 120 -10 l137 2 1 -105 c3 -195 0 -223 -22 -243 -21 -17 -99
-25 -99 -9 0 4 7 27 16 51 30 86 -14 181 -99 217 -24 10 -48 27 -53 38 -12 27
-36 27 -48 0 -5 -12 -25 -27 -43 -33 -72 -26 -130 -121 -119 -193 4 -22 13
-53 22 -70 25 -49 144 -113 144 -77 0 5 -4 7 -10 4 -5 -3 -17 -2 -26 3 -15 8
-15 10 1 15 9 4 24 3 34 -2 10 -6 23 -6 32 0 29 18 33 8 4 -11 l-30 -20 29 0
c16 0 35 8 43 18 8 9 12 11 8 5 -10 -21 12 -15 44 13 25 21 42 26 95 27 38 1
71 7 78 15 15 15 24 428 10 450 -5 7 -23 14 -40 14 -24 1 -32 6 -32 20 0 10
-4 18 -10 18 -5 0 -10 -9 -10 -20 0 -15 -7 -20 -25 -20 -18 0 -25 5 -25 20 0
11 -4 20 -10 20 -5 0 -10 -8 -10 -19 0 -12 -9 -20 -25 -23 -21 -4 -25 -1 -25
18 0 29 -16 32 -23 4 -3 -12 -14 -20 -26 -20 -14 0 -21 6 -21 20 0 26 -16 26
-23 1 -6 -26 -47 -24 -47 1 0 10 -4 18 -10 18 -5 0 -10 -9 -10 -21 0 -15 -4
-19 -16 -15 -9 3 -20 6 -25 6 -5 0 -9 7 -9 15 0 8 -4 15 -10 15 -5 0 -10 -8
-10 -18 0 -13 -8 -18 -25 -18 -17 0 -25 5 -25 18 0 20 -20 25 -20 6z m60 -42
c0 -2 -7 -7 -16 -10 -8 -3 -12 -2 -9 4 6 10 25 14 25 6z m60 0 c0 -2 -7 -6
-15 -10 -8 -3 -15 -1 -15 4 0 6 7 10 15 10 8 0 15 -2 15 -4z m350 0 c0 -2 -7
-7 -16 -10 -8 -3 -12 -2 -9 4 6 10 25 14 25 6z m25 -25 c3 -5 0 -13 -6 -17 -8
-5 -9 -3 -4 6 6 10 4 12 -9 7 -10 -4 -15 -3 -11 3 8 13 22 13 30 1z m-478 -33
c0 -7 -11 -14 -24 -14 -22 -2 -23 -1 -6 12 23 17 30 17 30 2z m180 -3 c0 -8
-2 -13 -5 -10 -3 2 -14 0 -26 -6 -19 -9 -19 -8 3 10 28 25 28 25 28 6z m217 4
c-4 -7 0 -9 12 -5 25 8 53 -9 29 -17 -9 -4 -13 -3 -10 3 9 14 -9 12 -23 -2 -9
-9 -12 -9 -12 0 0 6 -7 9 -17 5 -15 -5 -14 -3 2 10 24 19 29 21 19 6z m-359
-9 c-3 -5 -12 -10 -18 -10 -7 0 -6 4 3 10 19 12 23 12 15 0z m305 6 c0 -2 -7
-7 -16 -10 -8 -3 -12 -2 -9 4 6 10 25 14 25 6z m-194 -131 c-11 -8 -24 -15
-30 -15 -5 0 -1 7 10 15 10 8 24 14 29 14 6 0 1 -6 -9 -14z m118 -7 c-5 -8 -2
-9 10 -5 11 5 15 3 10 -5 -5 -8 -1 -9 12 -4 10 4 15 4 11 0 -4 -4 1 -12 10
-19 13 -9 13 -14 3 -20 -8 -5 -11 -4 -7 2 4 6 -12 18 -34 28 -28 13 -36 21
-27 27 18 11 20 10 12 -4z m-76 -34 c7 -13 13 -14 28 -6 13 8 14 11 5 12 -8 0
-12 3 -9 6 3 3 22 -1 41 -10 50 -20 87 -96 55 -109 -10 -4 -9 -8 2 -16 21 -14
1 -67 -24 -63 -13 3 -16 -1 -12 -16 5 -14 -1 -22 -19 -30 -35 -16 -45 -15 -45
6 -1 16 -2 16 -14 -1 -13 -17 -16 -17 -45 -3 -22 12 -28 21 -24 33 5 12 2 15
-10 10 -12 -4 -21 2 -32 24 -15 29 -15 31 7 49 22 17 22 18 3 17 -15 -2 -19 3
-17 18 5 29 21 45 39 38 12 -5 14 -1 9 14 -5 14 0 23 16 31 31 15 36 14 46 -4z
m167 -52 c-3 -3 -11 0 -18 7 -9 10 -8 11 6 5 10 -3 15 -9 12 -12z m-300 -32
c-3 -5 -12 -10 -18 -10 -7 0 -6 4 3 10 19 12 23 12 15 0z m-10 -47 c-1 -16 3
-32 9 -36 7 -6 6 -7 -3 -5 -16 5 -28 68 -13 68 5 0 8 -12 7 -27z m318 -15 c-4
-7 -8 -17 -8 -22 0 -5 -7 -11 -15 -13 -13 -4 -13 -3 0 6 8 6 11 11 6 11 -5 0
-3 7 4 15 15 18 24 20 13 3z m-298 -47 c-3 -5 4 -12 15 -16 20 -6 19 -25 -1
-25 -6 0 -8 4 -5 9 3 5 -1 12 -10 15 -13 5 -12 26 2 26 3 0 3 -4 -1 -9z m284
-4 c-2 -1 -13 -9 -24 -17 -19 -14 -19 -14 -6 3 7 9 18 17 24 17 6 0 8 -1 6 -3z
m-234 -47 c-3 -5 -11 -10 -16 -10 -6 0 -7 5 -4 10 3 6 11 10 16 10 6 0 7 -4 4
-10z"/>
<path d="M342 248 c-28 -22 -39 -39 -36 -50 3 -10 1 -18 -5 -18 -5 0 -11 8
-14 18 -4 16 -4 16 -12 -2 -5 -12 -3 -21 6 -27 20 -12 31 -7 49 25 8 15 27 35
42 44 17 11 24 22 19 30 -6 10 -18 4 -49 -20z"/>
<path d="M218 164 c-32 -17 -33 -20 -13 -28 8 -3 14 -1 12 4 -1 5 7 16 18 24
25 19 18 20 -17 0z"/>
<path d="M240 100 c-9 -6 -10 -10 -3 -10 6 0 15 5 18 10 8 12 4 12 -15 0z"/>
</g>
</svg>
