<?xml version="1.0" standalone="no"?>
<!DOCTYPE svg PUBLIC "-//W3C//DTD SVG 20010904//EN"
 "http://www.w3.org/TR/2001/REC-SVG-20010904/DTD/svg10.dtd">
<svg version="1.0" xmlns="http://www.w3.org/2000/svg"
 width="60.000000pt" height="60.000000pt" viewBox="0 0 60.000000 60.000000"
 preserveAspectRatio="xMidYMid meet">

<g transform="translate(0.000000,60.000000) scale(0.100000,-0.100000)"
fill="#000000" stroke="none">
<path d="M303 548 c-27 -35 -144 -269 -138 -278 3 -5 33 -10 66 -10 l60 0 -6
-32 c-21 -127 -25 -172 -16 -181 5 -5 14 -6 20 -3 17 11 153 275 146 286 -3 5
-33 10 -66 10 l-60 0 6 33 c18 109 25 169 20 178 -8 13 -21 11 -32 -3z"/>
<path d="M84 509 c-3 -6 7 -25 25 -42 24 -25 33 -29 43 -19 9 9 6 18 -17 42
-31 33 -40 36 -51 19z"/>
<path d="M465 490 c-23 -24 -26 -33 -17 -42 10 -10 19 -6 43 19 18 17 28 36
25 42 -11 17 -20 14 -51 -19z"/>
<path d="M105 130 c-23 -24 -26 -33 -17 -42 10 -10 19 -6 43 19 18 17 28 36
25 42 -11 17 -20 14 -51 -19z"/>
<path d="M444 149 c-3 -6 7 -25 25 -42 24 -25 33 -29 43 -19 9 9 6 18 -17 42
-31 33 -40 36 -51 19z"/>
</g>
</svg>
