<?xml version="1.0" standalone="no"?>
<!DOCTYPE svg PUBLIC "-//W3C//DTD SVG 20010904//EN"
 "http://www.w3.org/TR/2001/REC-SVG-20010904/DTD/svg10.dtd">
<svg version="1.0" xmlns="http://www.w3.org/2000/svg"
 width="64.000000pt" height="64.000000pt" viewBox="0 0 64.000000 64.000000"
 preserveAspectRatio="xMidYMid meet">

<g transform="translate(0.000000,64.000000) scale(0.100000,-0.100000)"
fill="#000000" stroke="none">
<path d="M235 581 c-48 -22 -79 -54 -100 -103 -29 -70 -21 -103 49 -207 31
-45 36 -61 36 -110 0 -53 3 -59 39 -94 22 -20 45 -37 51 -37 6 0 29 17 51 37
36 35 39 41 39 94 0 49 5 65 36 110 71 106 79 141 45 214 -45 98 -152 140
-246 96z m138 -15 c44 -18 95 -78 103 -121 9 -48 -1 -78 -45 -144 -21 -31 -41
-66 -45 -78 -10 -31 -66 -33 -66 -3 0 11 -4 20 -10 20 -5 0 -10 -9 -10 -20 0
-30 -56 -28 -66 3 -4 12 -24 47 -45 78 -21 31 -41 68 -45 83 -10 42 5 94 39
133 53 60 122 78 190 49z m-8 -395 c-11 -4 -44 -11 -72 -14 -43 -5 -53 -3 -53
8 0 12 15 15 73 14 46 0 65 -3 52 -8z m15 -30 c0 -10 -35 -21 -72 -21 -15 0
-30 -5 -34 -11 -5 -9 8 -10 45 -7 42 4 49 3 40 -8 -16 -19 -84 -18 -103 2 -30
30 -26 32 74 47 45 7 50 7 50 -2z"/>
<path d="M253 538 c-27 -13 -31 -33 -5 -23 9 4 34 9 55 12 20 3 37 10 37 14 0
12 -60 10 -87 -3z"/>
<path d="M370 520 c0 -5 9 -14 20 -20 22 -12 27 -1 8 18 -14 14 -28 16 -28 2z"/>
<path d="M260 371 c0 -13 29 -35 37 -28 7 8 -15 37 -28 37 -5 0 -9 -4 -9 -9z"/>
<path d="M322 357 c-23 -24 -32 -97 -12 -97 6 0 10 15 10 33 0 21 8 41 20 52
21 19 26 35 12 35 -5 0 -18 -10 -30 -23z"/>
<path d="M54 505 c22 -17 46 -20 46 -6 0 10 -25 21 -48 21 -15 -1 -14 -3 2
-15z"/>
<path d="M533 513 c-7 -2 -13 -9 -13 -14 0 -14 24 -11 46 6 19 14 19 14 -1 14
-11 0 -26 -3 -32 -6z"/>
<path d="M0 410 c0 -5 18 -10 40 -10 22 0 40 5 40 10 0 6 -18 10 -40 10 -22 0
-40 -4 -40 -10z"/>
<path d="M540 410 c0 -5 18 -10 40 -10 22 0 40 5 40 10 0 6 -18 10 -40 10 -22
0 -40 -4 -40 -10z"/>
<path d="M54 315 c-16 -12 -17 -14 -2 -15 23 0 48 11 48 21 0 14 -24 11 -46
-6z"/>
<path d="M520 321 c0 -10 25 -21 48 -21 15 1 14 3 -2 15 -22 17 -46 20 -46 6z"/>
</g>
</svg>
