<svg width="728" height="153" viewBox="0 0 728 153" fill="none" xmlns="http://www.w3.org/2000/svg">
<path d="M182.886 52.1818L198.364 52.1818L219.091 102.773L219.909 102.773L240.636 52.1818L256.114 52.1818L256.114 122L243.977 122L243.977 74.0341L243.33 74.0341L224.034 121.795L214.966 121.795L195.67 73.9318L195.023 73.9318L195.023 122L182.886 122L182.886 52.1818ZM269.886 122L269.886 52.1818L282.534 52.1818L282.534 81.7386L314.886 81.7386L314.886 52.1818L327.568 52.1818L327.568 122L314.886 122L314.886 92.3409L282.534 92.3409L282.534 122L269.886 122ZM339.074 59.6818L339.074 52.1818L391.437 52.1818L391.437 59.6818L369.483 59.6818L369.483 122L361.028 122L361.028 59.6818L339.074 59.6818ZM404.486 122L404.486 52.1818L446.622 52.1818L446.622 59.6818L412.94 59.6818L412.94 83.2727L444.44 83.2727L444.44 90.7727L412.94 90.7727L412.94 114.5L447.168 114.5L447.168 122L404.486 122ZM518.043 74L509.588 74C509.088 71.5682 508.213 69.4318 506.963 67.5909C505.736 65.75 504.236 64.2045 502.463 62.9545C500.713 61.6818 498.77 60.7273 496.634 60.0909C494.497 59.4545 492.27 59.1364 489.952 59.1364C485.724 59.1364 481.895 60.2045 478.463 62.3409C475.054 64.4773 472.338 67.625 470.315 71.7841C468.315 75.9432 467.315 81.0455 467.315 87.0909C467.315 93.1364 468.315 98.2386 470.315 102.398C472.338 106.557 475.054 109.705 478.463 111.841C481.895 113.977 485.724 115.045 489.952 115.045C492.27 115.045 494.497 114.727 496.634 114.091C498.77 113.455 500.713 112.511 502.463 111.261C504.236 109.989 505.736 108.432 506.963 106.591C508.213 104.727 509.088 102.591 509.588 100.182L518.043 100.182C517.406 103.75 516.247 106.943 514.565 109.761C512.884 112.58 510.793 114.977 508.293 116.955C505.793 118.909 502.986 120.398 499.872 121.42C496.781 122.443 493.474 122.955 489.952 122.955C483.997 122.955 478.702 121.5 474.065 118.591C469.429 115.682 465.781 111.545 463.122 106.182C460.463 100.818 459.134 94.4545 459.134 87.0909C459.134 79.7273 460.463 73.3636 463.122 68C465.781 62.6364 469.429 58.5 474.065 55.5909C478.702 52.6818 483.997 51.2273 489.952 51.2273C493.474 51.2273 496.781 51.7386 499.872 52.7614C502.986 53.7841 505.793 55.2841 508.293 57.2614C510.793 59.2159 512.884 61.6023 514.565 64.4205C516.247 67.2159 517.406 70.4091 518.043 74ZM531.705 122L531.705 52.1818L540.159 52.1818L540.159 83.2727L577.386 83.2727L577.386 52.1818L585.841 52.1818L585.841 122L577.386 122L577.386 90.7727L540.159 90.7727L540.159 122L531.705 122ZM611.222 52.1818L611.222 122L602.767 122L602.767 52.1818L611.222 52.1818ZM683.537 52.1818L683.537 122L675.355 122L637.31 67.1818L636.628 67.1818L636.628 122L628.173 122L628.173 52.1818L636.355 52.1818L674.537 107.136L675.219 107.136L675.219 52.1818L683.537 52.1818Z" fill="black"/>
<rect width="153" height="144" rx="18" fill="white"/>
<path d="M35.5566 25.4175L121.195 115" stroke="black" stroke-width="24" stroke-linecap="round"/>
<path d="M35.5566 70.2087L73.3385 112.365" stroke="black" stroke-width="24" stroke-linecap="round"/>
<path d="M28 107.096L33.0376 112.365" stroke="black" stroke-width="24" stroke-linecap="round"/>
<path d="M127.785 20.5911L98.2125 49.2964L121.197 75.9447" stroke="black" stroke-width="25" stroke-linecap="round"/>
</svg>
