<?xml version="1.0" standalone="no"?>
<!DOCTYPE svg PUBLIC "-//W3C//DTD SVG 20010904//EN"
 "http://www.w3.org/TR/2001/REC-SVG-20010904/DTD/svg10.dtd">
<svg version="1.0" xmlns="http://www.w3.org/2000/svg"
 width="64.000000pt" height="64.000000pt" viewBox="0 0 64.000000 64.000000"
 preserveAspectRatio="xMidYMid meet">

<g transform="translate(0.000000,64.000000) scale(0.100000,-0.100000)"
fill="#000000" stroke="none">
<path d="M10 339 c0 -162 1 -171 20 -176 11 -3 20 -12 20 -19 0 -12 50 -14
290 -14 l290 0 0 171 c0 162 -1 171 -20 176 -11 3 -20 12 -20 19 0 12 -50 14
-290 14 l-290 0 0 -171z m570 1 l0 -160 -275 0 -275 0 0 160 0 160 275 0 275
0 0 -160z m30 -40 l0 -160 -275 0 c-177 0 -275 4 -275 10 0 6 95 10 265 10
l265 0 0 150 c0 93 4 150 10 150 6 0 10 -60 10 -160z"/>
<path d="M107 473 c-4 -3 -7 -17 -7 -30 0 -15 -9 -27 -25 -35 -23 -10 -25 -17
-25 -74 0 -57 2 -63 22 -66 17 -2 24 -12 28 -33 l5 -30 190 -2 190 -3 15 33
c9 20 24 33 38 35 20 3 22 9 22 67 0 61 -1 63 -29 73 -21 7 -31 19 -36 41 l-7
31 -187 0 c-103 0 -191 -3 -194 -7z m377 -39 c4 -16 18 -30 36 -37 27 -10 30
-16 30 -57 0 -40 -4 -47 -30 -62 -17 -9 -35 -29 -40 -43 l-10 -25 -174 0 -173
0 -7 30 c-3 19 -15 34 -31 42 -22 10 -25 18 -25 58 0 40 3 49 21 53 11 3 25
19 32 36 l11 31 177 0 177 0 6 -26z"/>
<path d="M229 411 c-23 -24 -29 -38 -29 -74 0 -110 145 -144 196 -46 53 104
-84 202 -167 120z m130 -7 c25 -21 31 -33 31 -65 0 -86 -100 -123 -154 -58
-35 41 -34 83 3 120 37 37 79 38 120 3z"/>
<path d="M270 393 c43 -14 44 -16 15 -23 -24 -6 -25 -8 -7 -9 27 -1 30 -21 2
-21 -28 0 -25 -11 10 -45 31 -30 42 -25 13 7 -9 10 -14 20 -12 21 55 41 60 47
45 47 -21 0 -21 17 2 23 9 3 -5 5 -33 5 -27 0 -43 -2 -35 -5z"/>
</g>
</svg>
