<?xml version="1.0" standalone="no"?>
<!DOCTYPE svg PUBLIC "-//W3C//DTD SVG 20010904//EN"
 "http://www.w3.org/TR/2001/REC-SVG-20010904/DTD/svg10.dtd">
<svg version="1.0" xmlns="http://www.w3.org/2000/svg"
 width="60.000000pt" height="60.000000pt" viewBox="0 0 60.000000 60.000000"
 preserveAspectRatio="xMidYMid meet">

<g transform="translate(0.000000,60.000000) scale(0.100000,-0.100000)"
fill="#000000" stroke="none">
<path d="M272 588 c-6 -6 -12 -18 -12 -24 0 -8 -16 -14 -37 -16 -36 -3 -38 -5
-41 -38 -2 -25 -9 -38 -25 -45 -30 -13 -30 -57 0 -70 16 -7 23 -20 25 -45 l3
-35 115 0 115 0 3 35 c2 25 9 38 25 45 30 13 30 57 0 70 -16 7 -23 20 -25 45
-3 32 -6 35 -38 38 -25 2 -38 9 -45 25 -11 25 -44 34 -63 15z m41 -37 c-3 -19
2 -21 42 -21 l45 0 0 -45 c0 -40 2 -45 23 -42 14 1 22 -3 22 -13 0 -10 -8 -14
-22 -13 -21 3 -23 -2 -23 -42 l0 -45 -100 0 -100 0 0 45 c0 40 -2 45 -22 42
-15 -1 -23 3 -23 13 0 10 8 14 23 13 20 -3 22 2 22 42 l0 45 46 0 c38 0 45 3
40 16 -3 9 -3 20 0 25 10 17 29 3 27 -20z"/>
<path d="M291 439 c-13 -39 -14 -49 -2 -49 8 0 31 52 31 71 0 21 -19 6 -29
-22z"/>
<path d="M230 445 c-10 -12 -10 -18 0 -30 19 -23 27 -18 27 15 0 33 -8 38 -27
15z"/>
<path d="M343 430 c0 -33 8 -38 27 -15 10 12 10 18 0 30 -19 23 -27 18 -27
-15z"/>
<path d="M92 278 c-6 -6 -12 -18 -12 -24 0 -8 -16 -14 -37 -16 l-38 -3 0 -115
0 -115 115 0 115 0 3 52 c3 50 2 53 -20 50 -15 -1 -23 3 -23 13 0 10 8 14 23
13 22 -3 23 0 20 50 -3 52 -3 52 -38 55 -25 2 -38 9 -45 25 -11 25 -44 34 -63
15z m41 -37 c-3 -19 2 -21 42 -21 42 0 45 -2 45 -28 0 -19 -7 -30 -22 -37 -15
-7 -23 -19 -23 -35 0 -16 8 -28 23 -35 15 -7 22 -18 22 -37 l0 -28 -100 0
-100 0 0 100 0 100 46 0 c38 0 45 3 40 16 -3 9 -3 20 0 25 10 17 29 3 27 -20z"/>
<path d="M290 250 c0 -31 -3 -38 -15 -34 -21 9 -19 -10 5 -31 19 -17 21 -17
40 0 24 21 26 40 5 31 -12 -4 -15 3 -15 34 0 22 -4 40 -10 40 -5 0 -10 -18
-10 -40z"/>
<path d="M452 278 c-6 -6 -12 -18 -12 -24 0 -8 -16 -14 -37 -16 l-38 -3 -3
-52 c-3 -50 -2 -53 20 -50 15 1 23 -3 23 -13 0 -10 -8 -14 -23 -13 -22 3 -23
0 -20 -50 l3 -52 115 0 115 0 0 115 0 115 -35 3 c-25 2 -38 9 -45 25 -11 25
-44 34 -63 15z m41 -37 c-3 -19 2 -21 42 -21 l45 0 0 -100 0 -100 -100 0 -100
0 0 28 c0 19 7 30 23 37 14 7 22 19 22 35 0 16 -8 28 -22 35 -16 7 -23 18 -23
37 0 27 2 28 46 28 38 0 45 3 40 16 -3 9 -3 20 0 25 10 17 29 3 27 -20z"/>
</g>
</svg>
