<?xml version="1.0" standalone="no"?>
<!DOCTYPE svg PUBLIC "-//W3C//DTD SVG 20010904//EN"
 "http://www.w3.org/TR/2001/REC-SVG-20010904/DTD/svg10.dtd">
<svg version="1.0" xmlns="http://www.w3.org/2000/svg"
 width="100.000000pt" height="100.000000pt" viewBox="0 0 100.000000 100.000000"
 preserveAspectRatio="xMidYMid meet">

<g transform="translate(0.000000,100.000000) scale(0.100000,-0.100000)"
fill="#000000" stroke="none">
<path d="M90 750 c0 -6 58 -10 155 -10 155 0 211 -10 230 -40 5 -7 -14 -34
-49 -69 -61 -62 -68 -82 -34 -105 45 -32 119 -12 173 44 23 24 37 30 72 30 24
0 43 5 43 10 0 6 -22 10 -48 10 -41 0 -53 -5 -78 -31 -54 -57 -126 -77 -154
-43 -12 13 -3 26 61 91 41 41 88 81 106 89 23 10 77 14 188 14 97 0 155 4 155
10 0 6 -59 10 -158 10 -147 0 -162 -2 -205 -24 l-47 -23 -47 23 c-43 22 -58
24 -205 24 -99 0 -158 -4 -158 -10z"/>
<path d="M600 573 c0 -4 37 -44 81 -89 57 -58 80 -87 76 -98 -11 -28 -37 -30
-62 -6 -32 30 -45 17 -15 -15 41 -44 -1 -86 -45 -45 -32 30 -45 17 -15 -15 41
-44 -1 -86 -45 -45 -33 31 -45 17 -15 -15 19 -21 22 -30 14 -43 -17 -27 -47
-20 -69 15 -11 18 -30 36 -42 39 -12 3 -24 17 -27 30 -4 14 -16 26 -30 30 -14
3 -27 16 -30 30 -4 14 -16 26 -30 30 -13 3 -27 15 -30 27 -3 12 -26 34 -50 50
-36 22 -55 27 -110 27 -37 0 -66 -4 -66 -10 0 -6 29 -10 68 -10 74 0 101 -13
76 -37 -27 -27 -6 -83 31 -83 7 0 16 -11 19 -25 4 -15 16 -27 30 -31 14 -3 27
-16 30 -30 4 -14 16 -26 31 -30 14 -3 25 -12 25 -19 0 -36 57 -58 82 -32 10
11 17 11 40 -2 31 -18 56 -9 72 26 5 11 19 24 30 29 12 5 25 18 30 30 5 11 19
25 30 30 12 5 25 19 31 32 5 12 15 22 21 22 16 0 44 34 44 55 0 9 -37 55 -82
101 -76 78 -98 95 -98 77z m-305 -183 c0 -18 -6 -26 -23 -28 -13 -2 -25 3 -28
12 -10 26 4 48 28 44 17 -2 23 -10 23 -28z m60 -60 c0 -18 -6 -26 -23 -28 -13
-2 -25 3 -28 12 -10 26 4 48 28 44 17 -2 23 -10 23 -28z m60 -60 c0 -18 -6
-26 -23 -28 -24 -4 -38 18 -28 44 3 9 15 14 28 12 17 -2 23 -10 23 -28z m60
-60 c0 -18 -6 -26 -23 -28 -13 -2 -25 3 -28 12 -10 26 4 48 28 44 17 -2 23
-10 23 -28z"/>
<path d="M821 501 c0 -19 -8 -43 -18 -53 -9 -10 -13 -21 -9 -26 4 -4 16 3 26
16 13 15 29 22 54 22 20 0 36 5 36 10 0 6 -18 10 -39 10 -36 0 -40 3 -44 28
-4 24 -4 23 -6 -7z"/>
<path d="M540 516 c0 -2 8 -10 18 -17 15 -13 16 -12 3 4 -13 16 -21 21 -21 13z"/>
<path d="M580 477 c0 -2 15 -16 33 -33 l32 -29 -29 33 c-28 30 -36 37 -36 29z"/>
<path d="M555 380 c10 -11 20 -20 23 -20 3 0 -3 9 -13 20 -10 11 -20 20 -23
20 -3 0 3 -9 13 -20z"/>
<path d="M480 335 c19 -19 36 -35 39 -35 3 0 -10 16 -29 35 -19 19 -36 35 -39
35 -3 0 10 -16 29 -35z"/>
</g>
</svg>
